<svg width="18" height="20" viewBox="0 0 18 20" fill="none" xmlns="http://www.w3.org/2000/svg">
<g id="location">
<path id="Icon" fill-rule="evenodd" clip-rule="evenodd" d="M9 3.27308C6.51472 3.27308 4.5 5.47096 4.5 8.18217C4.5 9.02316 4.77296 9.96319 5.23613 10.9377C5.69593 11.905 6.3177 12.8533 6.95395 13.6961C7.58837 14.5365 8.22488 15.2559 8.70359 15.7657C8.81122 15.8804 8.91064 15.9841 9 16.0761C9.08935 15.9841 9.18878 15.8804 9.29641 15.7657C9.77512 15.2559 10.4116 14.5365 11.0461 13.6961C11.6823 12.8533 12.3041 11.905 12.7639 10.9377C13.227 9.96319 13.5 9.02316 13.5 8.18217C13.5 5.47096 11.4853 3.27308 9 3.27308ZM9 17.1822C8.51191 17.8034 8.51177 17.8033 8.51162 17.8031L8.51003 17.8016L8.50625 17.7981L8.4931 17.7856C8.48188 17.775 8.46583 17.7597 8.44527 17.74C8.40414 17.7004 8.34492 17.643 8.27019 17.5689C8.12079 17.4209 7.90908 17.2064 7.65578 16.9367C7.15012 16.3982 6.47413 15.6346 5.79605 14.7364C5.1198 13.8406 4.42907 12.7946 3.9045 11.6909C3.38329 10.5943 3 9.38664 3 8.18217C3 4.56722 5.68629 1.63672 9 1.63672C12.3137 1.63672 15 4.56722 15 8.18217C15 9.38664 14.6167 10.5943 14.0955 11.6909C13.5709 12.7946 12.8802 13.8406 12.2039 14.7364C11.5259 15.6346 10.8499 16.3982 10.3442 16.9367C10.0909 17.2064 9.87921 17.4209 9.72981 17.5689C9.65508 17.643 9.59586 17.7004 9.55473 17.74C9.53417 17.7597 9.51812 17.775 9.5069 17.7856L9.49375 17.7981L9.48997 17.8016L9.48879 17.8027C9.48864 17.8029 9.48809 17.8034 9 17.1822ZM9 17.1822L8.51162 17.8031C8.79248 18.0657 9.20723 18.066 9.48809 17.8034L9 17.1822ZM9 6.54581C8.17157 6.54581 7.5 7.27843 7.5 8.18217C7.5 9.08591 8.17157 9.81854 9 9.81854C9.82843 9.81854 10.5 9.08591 10.5 8.18217C10.5 7.27843 9.82843 6.54581 9 6.54581ZM6 8.18217C6 6.3747 7.34315 4.90945 9 4.90945C10.6569 4.90945 12 6.3747 12 8.18217C12 9.98965 10.6569 11.4549 9 11.4549C7.34315 11.4549 6 9.98965 6 8.18217Z" fill="white"/>
</g>
</svg>
