<svg width="24" height="24" viewBox="0 0 24 24" fill="none" xmlns="http://www.w3.org/2000/svg">
<g id="back" clip-path="url(#clip0_2_109)">
<path id="Vector" d="M3 12.5C3 12.7761 3.22386 13 3.5 13L15.9653 13C16.4104 13 16.6336 13.5379 16.3193 13.8531L13.9426 16.2364C13.7478 16.4318 13.748 16.748 13.9431 16.9431L14.6464 17.6464C14.8417 17.8417 15.1583 17.8417 15.3536 17.6464L20.6464 12.3536C20.8417 12.1583 20.8417 11.8417 20.6464 11.6464L15.3536 6.35355C15.1583 6.15829 14.8417 6.15829 14.6464 6.35355L13.9431 7.05694C13.748 7.25201 13.7478 7.56821 13.9426 7.76355L16.3193 10.1469C16.6336 10.4621 16.4104 11 15.9653 11L3.5 11C3.22386 11 3 11.2239 3 11.5V12.5Z" fill="#FF0000"/>
</g>
<defs>
<clipPath id="clip0_2_109">
<rect width="24" height="24" fill="white" transform="matrix(-1 0 0 -1 24 24)"/>
</clipPath>
</defs>
</svg>
