<svg width="104" height="92" viewBox="0 0 104 92" fill="none" xmlns="http://www.w3.org/2000/svg">
<g id="Group">
<g id="Group_2">
<path id="Vector" d="M102.753 25.3196C106.683 14.2002 98.5285 1.18511 98.1803 0.641112C97.8377 0.113861 97.1998 -0.119346 96.5853 0.0671318C95.9866 0.273006 95.5978 0.850512 95.6384 1.47254C96.1793 9.42141 94.8682 15.1304 91.773 18.4526C89.683 20.6832 86.8175 21.8047 83.2489 21.8047C80.8692 21.8047 79.03 21.2775 79.0106 21.2775C69.5606 17.3844 60.3285 16.8034 55.6573 16.8034C53.3296 16.8034 51.9339 16.9387 51.9339 16.9449C51.8872 16.9387 50.4906 16.8034 48.162 16.8034C43.4939 16.8034 34.2534 17.3844 24.9167 21.2369C24.8982 21.244 23.0264 21.8052 20.5651 21.8052C17.0018 21.8052 14.1319 20.6832 12.0489 18.453C8.94404 15.1308 7.64311 9.42186 8.18359 1.47299C8.22414 0.844782 7.83135 0.267275 7.23401 0.0675724C6.62873 -0.128603 5.97539 0.114302 5.64212 0.641552C5.289 1.18511 -2.8609 14.2002 1.06791 25.3196C2.72505 30.0111 6.26547 33.6203 11.6195 36.0837C6.76495 38.2002 4.05728 39.8185 3.56177 40.9004C3.38587 41.2989 3.39998 41.7521 3.60762 42.1303C3.77999 42.4552 7.93671 50.0122 14.7235 50.0122C15.2878 50.0122 15.8693 49.954 16.43 49.846L23.9632 48.5953C25.8227 54.7169 30.4745 68.6537 35.2801 72.2841C34.4712 73.4607 33.5718 75.2788 33.4638 77.6514C33.2906 81.3946 35.121 85.2692 38.9113 89.1486C40.7285 91.0248 41.9395 92 47.469 92C48.2277 92 49.0662 91.9881 49.958 91.9436H53.8445C54.7817 91.9881 55.6282 92 56.3789 92C61.9084 92 63.1084 91.0213 64.9366 89.1486C68.7226 85.2692 70.56 81.3946 70.3846 77.6514C70.2823 75.2788 69.3777 73.4607 68.567 72.2841C73.3792 68.6537 78.0152 54.7164 79.8804 48.5953L87.3835 49.8389C95.1376 51.3034 100.052 42.472 100.234 42.1272C100.441 41.7446 100.449 41.2914 100.285 40.9004C99.7801 39.8221 97.0839 38.2099 92.2275 36.0811C97.5551 33.6273 101.1 30.0181 102.753 25.3196ZM88.1087 34.7488C87.5612 34.9353 87.1865 35.4317 87.1689 36.0163C87.1547 36.5907 87.499 37.1082 88.0342 37.3344C91.6368 38.7945 95.8006 40.7245 97.2668 41.6776C96.1043 43.4251 93.1031 47.2538 89.1081 47.2538C88.7092 47.2538 88.308 47.2133 87.8539 47.1352L79.1212 45.6707C78.4551 45.5702 77.7696 45.9802 77.577 46.6441C74.201 58.1153 68.8747 70.4008 66.3288 70.4008C65.7473 70.4008 65.2333 70.7592 65.0371 71.3037C64.8321 71.8406 64.9877 72.4516 65.4259 72.8246C65.4506 72.844 67.4913 74.6757 67.6341 77.7731C67.7615 80.7285 66.1943 83.9105 62.9594 87.2243C61.3503 88.8779 60.9523 89.4347 53.8886 89.1852H49.9056C43.2012 89.4294 42.4848 88.8674 40.8868 87.2243C37.6757 83.9264 36.108 80.7602 36.2138 77.8149C36.3355 74.6938 38.34 72.8951 38.4194 72.8246C38.8584 72.4516 39.0136 71.8406 38.8086 71.3037C38.605 70.7663 38.0958 70.4008 37.5183 70.4008C34.9715 70.4008 29.6452 58.1153 26.2675 46.6441C26.0713 45.9802 25.4021 45.5667 24.7245 45.6707L15.9513 47.1392C11.3414 48.0169 7.90233 43.6437 6.59787 41.7111C8.16419 40.6733 12.2557 38.7742 15.8023 37.3344C16.3366 37.1179 16.6901 36.5871 16.6676 36.0163C16.6474 35.4317 16.281 34.9353 15.7295 34.7488C9.41839 32.62 5.36086 29.1457 3.68653 24.4172C1.60971 18.55 3.51063 11.8042 5.40362 7.28155C5.74307 13.0169 7.30278 17.3937 10.0532 20.3442C12.6423 23.1088 16.2872 24.5728 20.5934 24.5728C23.4897 24.5728 25.6697 23.9102 25.8703 23.8326C34.8855 20.1181 43.7135 19.5635 48.1779 19.5635C50.3411 19.5635 51.6354 19.6922 51.81 19.7059C51.8603 19.7059 52.1376 19.7059 52.183 19.6997C52.2174 19.6927 53.5117 19.5635 55.6758 19.5635C60.1362 19.5635 68.9646 20.1181 78.0963 23.8767C78.1844 23.9102 80.3574 24.5728 83.2621 24.5728C87.5639 24.5728 91.2101 23.1092 93.7978 20.3407C96.5558 17.3906 98.1102 13.0169 98.4567 7.28155C100.349 11.8042 102.248 18.5504 100.167 24.4137C98.477 29.1457 94.4278 32.62 88.1087 34.7488Z" fill="#424242"/>
<path id="Vector_2" d="M46.1606 79.0288C47.5109 79.0288 48.6037 80.1208 48.6037 81.472C48.6037 82.8218 47.5109 83.9151 46.1606 83.9151C44.8125 83.9151 43.7174 82.8218 43.7174 81.472C43.7174 80.1203 44.8129 79.0288 46.1606 79.0288Z" fill="#424242"/>
<path id="Vector_3" d="M57.656 79.0288C59.009 79.0288 60.1027 80.1208 60.1027 81.472C60.1027 82.8218 59.0094 83.9151 57.656 83.9151C56.3079 83.9151 55.2146 82.8218 55.2146 81.472C55.2146 80.1203 56.3079 79.0288 57.656 79.0288Z" fill="#424242"/>
</g>
</g>
</svg>
