<svg width="64" height="64" viewBox="0 0 64 64" fill="none" xmlns="http://www.w3.org/2000/svg">
<g id="Frame 491">
<rect x="0.5" y="0.5" width="63" height="63" stroke="white" stroke-opacity="0.4"/>
<path id="Icon" fill-rule="evenodd" clip-rule="evenodd" d="M20 25.25C20 24.5596 20.6716 24 21.5 24H42.5C43.3284 24 44 24.5596 44 25.25C44 25.9404 43.3284 26.5 42.5 26.5H21.5C20.6716 26.5 20 25.9404 20 25.25ZM20 31.5C20 30.8096 20.6716 30.25 21.5 30.25H42.5C43.3284 30.25 44 30.8096 44 31.5C44 32.1904 43.3284 32.75 42.5 32.75H21.5C20.6716 32.75 20 32.1904 20 31.5ZM20 37.75C20 37.0596 20.6716 36.5 21.5 36.5H42.5C43.3284 36.5 44 37.0596 44 37.75C44 38.4404 43.3284 39 42.5 39H21.5C20.6716 39 20 38.4404 20 37.75Z" fill="white"/>
</g>
</svg>
