<svg width="36" height="36" viewBox="0 0 36 36" fill="none" xmlns="http://www.w3.org/2000/svg">
<g id="Frame 40">
<rect width="36" height="36" rx="18" fill="#EEF0F3"/>
<path id="Vector" d="M14.3997 27.2812C13.9421 27.2812 13.5531 27.121 13.2328 26.8007C12.9125 26.4804 12.7523 26.0914 12.7523 25.6338C12.7523 25.1762 12.9125 24.7872 13.2328 24.4669C13.5531 24.1466 13.9421 23.9864 14.3997 23.9864C14.842 23.9864 15.2272 24.1466 15.5551 24.4669C15.8831 24.7872 16.0471 25.1762 16.0471 25.6338C16.0471 26.0914 15.8869 26.4804 15.5666 26.8007C15.2463 27.121 14.8573 27.2812 14.3997 27.2812ZM23.5517 27.2812C23.0941 27.2812 22.7052 27.121 22.3848 26.8007C22.0645 26.4804 21.9044 26.0914 21.9044 25.6338C21.9044 25.1762 22.0645 24.7872 22.3848 24.4669C22.7052 24.1466 23.0941 23.9864 23.5517 23.9864C23.9941 23.9864 24.3792 24.1466 24.7072 24.4669C25.0351 24.7872 25.1991 25.1762 25.1991 25.6338C25.1991 26.0914 25.0389 26.4804 24.7186 26.8007C24.3983 27.121 24.0093 27.2812 23.5517 27.2812ZM13.2099 12.1803L15.7267 17.397H22.3162L25.1762 12.1803H13.2099ZM12.5235 10.8075H25.9999C26.488 10.8075 26.7969 10.9562 26.9265 11.2537C27.0562 11.5511 27.0142 11.8829 26.8007 12.249L23.7119 17.8088C23.5593 18.0681 23.3458 18.2931 23.0712 18.4838C22.7967 18.6745 22.4992 18.7698 22.1789 18.7698H15.2463L13.965 21.1493H25.1991V22.5221H14.1709C13.5303 22.5221 13.0688 22.3086 12.7867 21.8815C12.5045 21.4544 12.5083 20.9739 12.7981 20.44L14.2624 17.7402L10.7846 10.3728H9V9H11.677L12.5235 10.8075ZM15.7267 17.397H22.3162H15.7267Z" fill="black"/>
</g>
</svg>
