<svg width="64" height="64" viewBox="0 0 64 64" fill="none" xmlns="http://www.w3.org/2000/svg">
<g id="Frame 492">
<rect x="0.5" y="0.5" width="63" height="63" stroke="white" stroke-opacity="0.4"/>
<path id="Vector" d="M27.0889 44C26.4881 44 25.9775 43.7897 25.5569 43.3692C25.1364 42.9487 24.9262 42.438 24.9262 41.8373C24.9262 41.2365 25.1364 40.7259 25.5569 40.3054C25.9775 39.8849 26.4881 39.6746 27.0889 39.6746C27.6696 39.6746 28.1752 39.8849 28.6058 40.3054C29.0363 40.7259 29.2516 41.2365 29.2516 41.8373C29.2516 42.438 29.0413 42.9487 28.6208 43.3692C28.2002 43.7897 27.6896 44 27.0889 44ZM39.1039 44C38.5031 44 37.9925 43.7897 37.572 43.3692C37.1514 42.9487 36.9412 42.438 36.9412 41.8373C36.9412 41.2365 37.1514 40.7259 37.572 40.3054C37.9925 39.8849 38.5031 39.6746 39.1039 39.6746C39.6846 39.6746 40.1902 39.8849 40.6208 40.3054C41.0513 40.7259 41.2666 41.2365 41.2666 41.8373C41.2666 42.438 41.0563 42.9487 40.6358 43.3692C40.2153 43.7897 39.7046 44 39.1039 44ZM25.5269 24.1752L28.831 31.0238H37.4819L41.2365 24.1752H25.5269ZM24.6258 22.373H42.3179C42.9587 22.373 43.3642 22.5682 43.5344 22.9587C43.7046 23.3492 43.6496 23.7847 43.3692 24.2653L39.3141 31.5645C39.1139 31.9049 38.8335 32.2003 38.4731 32.4506C38.1126 32.7009 37.7222 32.826 37.3016 32.826H28.2003L26.5181 35.9499H41.2666V37.7522H26.7885C25.9474 37.7522 25.3417 37.4718 24.9712 36.9111C24.6008 36.3504 24.6058 35.7196 24.9862 35.0188L26.9086 31.4743L22.3429 21.8023H20V20H23.5144L24.6258 22.373ZM28.831 31.0238H37.4819H28.831Z" fill="white"/>
</g>
</svg>
